<svg width="12" height="23" viewBox="0 0 12 23"  xmlns="http://www.w3.org/2000/svg">
<path fill="inherit"  d="M11.5481 0.00461814L8.66986 0C5.43624 0 3.34653 2.14397 3.34653 5.46233V7.98083H0.452578C0.202505 7.98083 0 8.18357 0 8.43364V12.0827C0 12.3327 0.202736 12.5352 0.452578 12.5352H3.34653V21.7429C3.34653 21.993 3.54904 22.1955 3.79911 22.1955H7.5749C7.82497 22.1955 8.02748 21.9927 8.02748 21.7429V12.5352H11.4112C11.6613 12.5352 11.8638 12.3327 11.8638 12.0827L11.8652 8.43364C11.8652 8.31357 11.8174 8.19858 11.7326 8.11361C11.6479 8.02863 11.5324 7.98083 11.4123 7.98083H8.02748V5.84587C8.02748 4.81972 8.27201 4.29879 9.60873 4.29879L11.5477 4.2981C11.7975 4.2981 12 4.09536 12 3.84552V0.457196C12 0.207585 11.7977 0.00507995 11.5481 0.00461814Z" />
</svg>
