<svg width="140" height="16" viewBox="0 0 140 16" fill="none" xmlns="http://www.w3.org/2000/svg">
<path d="M8.82812 7.33594C8.82812 8.13281 8.60156 8.74219 8.14844 9.16406C7.70052 9.58073 7.0651 9.78906 6.24219 9.78906C5.42448 9.78906 4.76823 9.51562 4.27344 8.96875C3.78385 8.41667 3.53906 7.66667 3.53906 6.71875V5.85938C3.53906 4.94271 3.78646 4.21094 4.28125 3.66406C4.78125 3.11198 5.4349 2.83594 6.24219 2.83594C7.07552 2.83594 7.71615 3.04948 8.16406 3.47656C8.61198 3.90365 8.83594 4.50521 8.83594 5.28125H7.69531C7.69531 4.76562 7.57031 4.39844 7.32031 4.17969C7.07552 3.95573 6.71615 3.84375 6.24219 3.84375C5.7526 3.84375 5.36719 4.02344 5.08594 4.38281C4.80469 4.74219 4.66406 5.24219 4.66406 5.88281V6.76562C4.66406 7.39062 4.80469 7.88281 5.08594 8.24219C5.36719 8.60156 5.7526 8.78125 6.24219 8.78125C6.72135 8.78125 7.08073 8.67188 7.32031 8.45312C7.5651 8.23438 7.6875 7.86198 7.6875 7.33594H8.82812ZM1.69531 6.30469C1.69531 7.20052 1.90365 8.03125 2.32031 8.79688C2.73698 9.55729 3.30208 10.1536 4.01562 10.5859C4.73438 11.0182 5.51042 11.2344 6.34375 11.2344C7.17708 11.2344 7.95052 11.0182 8.66406 10.5859C9.3776 10.1536 9.94271 9.55729 10.3594 8.79688C10.776 8.03125 10.9844 7.20052 10.9844 6.30469C10.9844 5.41927 10.7786 4.59896 10.3672 3.84375C9.95573 3.08854 9.39062 2.49479 8.67188 2.0625C7.95833 1.625 7.18229 1.40625 6.34375 1.40625C5.51042 1.40625 4.73438 1.6224 4.01562 2.05469C3.29688 2.48177 2.72917 3.07552 2.3125 3.83594C1.90104 4.59635 1.69531 5.41927 1.69531 6.30469ZM0.796875 6.30469C0.796875 5.2526 1.03906 4.27604 1.52344 3.375C2.01302 2.47396 2.6875 1.76562 3.54688 1.25C4.41146 0.729167 5.34375 0.46875 6.34375 0.46875C7.34375 0.46875 8.27344 0.729167 9.13281 1.25C9.99219 1.76562 10.6641 2.47396 11.1484 3.375C11.638 4.27604 11.8828 5.2526 11.8828 6.30469C11.8828 7.33073 11.6484 8.29167 11.1797 9.1875C10.7109 10.0833 10.0443 10.8047 9.17969 11.3516C8.32031 11.8932 7.375 12.1641 6.34375 12.1641C5.31771 12.1641 4.3724 11.8958 3.50781 11.3594C2.64844 10.8177 1.98177 10.099 1.50781 9.20312C1.03385 8.30729 0.796875 7.34115 0.796875 6.30469ZM25.0312 12H17.5781V10.9609L21.5156 6.58594C22.099 5.92448 22.5 5.38802 22.7188 4.97656C22.9427 4.5599 23.0547 4.13021 23.0547 3.6875C23.0547 3.09375 22.875 2.60677 22.5156 2.22656C22.1562 1.84635 21.6771 1.65625 21.0781 1.65625C20.3594 1.65625 19.7995 1.86198 19.3984 2.27344C19.0026 2.67969 18.8047 3.2474 18.8047 3.97656H17.3594C17.3594 2.92969 17.6953 2.08333 18.3672 1.4375C19.0443 0.791667 19.9479 0.46875 21.0781 0.46875C22.1354 0.46875 22.9714 0.747396 23.5859 1.30469C24.2005 1.85677 24.5078 2.59375 24.5078 3.51562C24.5078 4.63542 23.7943 5.96875 22.3672 7.51562L19.3203 10.8203H25.0312V12ZM33.6953 7.14844C33.6953 8.84115 33.4062 10.099 32.8281 10.9219C32.25 11.7448 31.3464 12.1562 30.1172 12.1562C28.9036 12.1562 28.0052 11.7552 27.4219 10.9531C26.8385 10.1458 26.5365 8.94271 26.5156 7.34375V5.41406C26.5156 3.74219 26.8047 2.5 27.3828 1.6875C27.9609 0.875 28.8672 0.46875 30.1016 0.46875C31.3255 0.46875 32.2266 0.861979 32.8047 1.64844C33.3828 2.42969 33.6797 3.63802 33.6953 5.27344V7.14844ZM32.25 5.17188C32.25 3.94792 32.0781 3.05729 31.7344 2.5C31.3906 1.9375 30.8464 1.65625 30.1016 1.65625C29.362 1.65625 28.8229 1.9349 28.4844 2.49219C28.1458 3.04948 27.9714 3.90625 27.9609 5.0625V7.375C27.9609 8.60417 28.138 9.51302 28.4922 10.1016C28.8516 10.6849 29.3932 10.9766 30.1172 10.9766C30.8307 10.9766 31.3594 10.7005 31.7031 10.1484C32.0521 9.59635 32.2344 8.72656 32.25 7.53906V5.17188ZM40.2969 12H38.8438V2.36719L35.9297 3.4375V2.125L40.0703 0.570312H40.2969V12ZM50.0703 7C49.7682 7.35938 49.4062 7.64844 48.9844 7.86719C48.5677 8.08594 48.1094 8.19531 47.6094 8.19531C46.9531 8.19531 46.3802 8.03385 45.8906 7.71094C45.4062 7.38802 45.0312 6.9349 44.7656 6.35156C44.5 5.76302 44.3672 5.11458 44.3672 4.40625C44.3672 3.64583 44.5104 2.96094 44.7969 2.35156C45.0885 1.74219 45.5 1.27604 46.0312 0.953125C46.5625 0.630208 47.1823 0.46875 47.8906 0.46875C49.0156 0.46875 49.901 0.890625 50.5469 1.73438C51.1979 2.57292 51.5234 3.71875 51.5234 5.17188V5.59375C51.5234 7.80729 51.0859 9.42448 50.2109 10.4453C49.3359 11.4609 48.0156 11.9818 46.25 12.0078H45.9688V10.7891H46.2734C47.4661 10.7682 48.3828 10.4583 49.0234 9.85938C49.6641 9.25521 50.013 8.30208 50.0703 7ZM47.8438 7C48.3281 7 48.7734 6.85156 49.1797 6.55469C49.5911 6.25781 49.8906 5.89062 50.0781 5.45312V4.875C50.0781 3.92708 49.8724 3.15625 49.4609 2.5625C49.0495 1.96875 48.5286 1.67188 47.8984 1.67188C47.263 1.67188 46.7526 1.91667 46.3672 2.40625C45.9818 2.89062 45.7891 3.53125 45.7891 4.32812C45.7891 5.10417 45.974 5.74479 46.3438 6.25C46.7188 6.75 47.2188 7 47.8438 7ZM66.4609 0.625V12H64.9609V1.85938H60.8828L60.6797 6.36719C60.6016 7.8776 60.4453 9.01302 60.2109 9.77344C59.9818 10.5339 59.6432 11.0938 59.1953 11.4531C58.7474 11.8073 58.1484 11.9896 57.3984 12H56.9062V10.7734L57.2188 10.7578C57.7031 10.7214 58.0755 10.5651 58.3359 10.2891C58.5964 10.0078 58.7943 9.5625 58.9297 8.95312C59.0651 8.34375 59.1615 7.40625 59.2188 6.14062L59.4531 0.625H66.4609ZM74.1797 12C74.0964 11.8333 74.0286 11.5365 73.9766 11.1094C73.3047 11.8073 72.5026 12.1562 71.5703 12.1562C70.737 12.1562 70.0521 11.9219 69.5156 11.4531C68.9844 10.9792 68.7188 10.3802 68.7188 9.65625C68.7188 8.77604 69.0521 8.09375 69.7188 7.60938C70.3906 7.11979 71.3333 6.875 72.5469 6.875H73.9531V6.21094C73.9531 5.70573 73.8021 5.30469 73.5 5.00781C73.1979 4.70573 72.7526 4.55469 72.1641 4.55469C71.6484 4.55469 71.2161 4.6849 70.8672 4.94531C70.5182 5.20573 70.3438 5.52083 70.3438 5.89062H68.8906C68.8906 5.46875 69.0391 5.0625 69.3359 4.67188C69.638 4.27604 70.0443 3.96354 70.5547 3.73438C71.0703 3.50521 71.6354 3.39062 72.25 3.39062C73.224 3.39062 73.987 3.63542 74.5391 4.125C75.0911 4.60938 75.3776 5.27865 75.3984 6.13281V10.0234C75.3984 10.7995 75.4974 11.4167 75.6953 11.875V12H74.1797ZM71.7812 10.8984C72.2344 10.8984 72.6641 10.7812 73.0703 10.5469C73.4766 10.3125 73.7708 10.0078 73.9531 9.63281V7.89844H72.8203C71.0495 7.89844 70.1641 8.41667 70.1641 9.45312C70.1641 9.90625 70.3151 10.2604 70.6172 10.5156C70.9193 10.7708 71.3073 10.8984 71.7812 10.8984ZM83.1328 3.54688H84.5781V12H83.1328V5.83594L79.2344 12H77.7891V3.54688H79.2344V9.71875L83.1328 3.54688ZM83.5234 0.46875C83.5234 1.09896 83.3073 1.60677 82.875 1.99219C82.4479 2.3724 81.8854 2.5625 81.1875 2.5625C80.4896 2.5625 79.9245 2.36979 79.4922 1.98438C79.0599 1.59896 78.8438 1.09375 78.8438 0.46875H80.0234C80.0234 0.833333 80.1224 1.11979 80.3203 1.32812C80.5182 1.53125 80.8073 1.63281 81.1875 1.63281C81.5521 1.63281 81.8359 1.53125 82.0391 1.32812C82.2474 1.125 82.3516 0.838542 82.3516 0.46875H83.5234ZM86.5859 7.92969C86.5859 6.51823 86.8594 5.40885 87.4062 4.60156C87.9531 3.79427 88.7031 3.39062 89.6562 3.39062C90.099 3.39062 90.487 3.46615 90.8203 3.61719V0H92.2656V3.66406C92.6302 3.48177 93.0573 3.39062 93.5469 3.39062C94.5052 3.39062 95.2578 3.79427 95.8047 4.60156C96.3516 5.40885 96.625 6.57292 96.625 8.09375C96.625 9.33854 96.3516 10.3281 95.8047 11.0625C95.263 11.7969 94.5156 12.1641 93.5625 12.1641C93.0573 12.1641 92.625 12.0807 92.2656 11.9141V15.25H90.8203V11.9375C90.4766 12.0885 90.0833 12.1641 89.6406 12.1641C88.6927 12.1641 87.9453 11.7969 87.3984 11.0625C86.8568 10.3281 86.5859 9.32292 86.5859 8.04688V7.92969ZM95.1797 7.92969C95.1797 6.86719 94.9974 6.04427 94.6328 5.46094C94.2682 4.8724 93.7656 4.57812 93.125 4.57812C92.7969 4.57812 92.5104 4.63021 92.2656 4.73438V10.8516C92.5 10.9401 92.7917 10.9844 93.1406 10.9844C93.7865 10.9844 94.2865 10.7344 94.6406 10.2344C95 9.73438 95.1797 8.96615 95.1797 7.92969ZM88.0312 8.09375C88.0312 9.04167 88.2005 9.76042 88.5391 10.25C88.8776 10.7396 89.3646 10.9844 90 10.9844C90.3021 10.9844 90.5755 10.9375 90.8203 10.8438V4.71094C90.6016 4.6224 90.3333 4.57812 90.0156 4.57812C89.3802 4.57812 88.8906 4.86198 88.5469 5.42969C88.2031 5.9974 88.0312 6.88542 88.0312 8.09375ZM101.219 6.63281L103.094 3.54688H104.781L102.016 7.72656L104.867 12H103.195L101.242 8.83594L99.2891 12H97.6094L100.461 7.72656L97.6953 3.54688H99.3672L101.219 6.63281ZM111.539 12C111.456 11.8333 111.388 11.5365 111.336 11.1094C110.664 11.8073 109.862 12.1562 108.93 12.1562C108.096 12.1562 107.411 11.9219 106.875 11.4531C106.344 10.9792 106.078 10.3802 106.078 9.65625C106.078 8.77604 106.411 8.09375 107.078 7.60938C107.75 7.11979 108.693 6.875 109.906 6.875H111.312V6.21094C111.312 5.70573 111.161 5.30469 110.859 5.00781C110.557 4.70573 110.112 4.55469 109.523 4.55469C109.008 4.55469 108.576 4.6849 108.227 4.94531C107.878 5.20573 107.703 5.52083 107.703 5.89062H106.25C106.25 5.46875 106.398 5.0625 106.695 4.67188C106.997 4.27604 107.404 3.96354 107.914 3.73438C108.43 3.50521 108.995 3.39062 109.609 3.39062C110.583 3.39062 111.346 3.63542 111.898 4.125C112.451 4.60938 112.737 5.27865 112.758 6.13281V10.0234C112.758 10.7995 112.857 11.4167 113.055 11.875V12H111.539ZM109.141 10.8984C109.594 10.8984 110.023 10.7812 110.43 10.5469C110.836 10.3125 111.13 10.0078 111.312 9.63281V7.89844H110.18C108.409 7.89844 107.523 8.41667 107.523 9.45312C107.523 9.90625 107.674 10.2604 107.977 10.5156C108.279 10.7708 108.667 10.8984 109.141 10.8984ZM117.656 8.39844H116.602V12H115.148V3.54688H116.602V7.125H117.547L120.391 3.54688H122.141L118.797 7.60938L122.422 12H120.586L117.656 8.39844ZM127.047 12.1562C125.901 12.1562 124.969 11.7812 124.25 11.0312C123.531 10.276 123.172 9.26823 123.172 8.00781V7.74219C123.172 6.90365 123.331 6.15625 123.648 5.5C123.971 4.83854 124.419 4.32292 124.992 3.95312C125.57 3.57812 126.195 3.39062 126.867 3.39062C127.966 3.39062 128.82 3.7526 129.43 4.47656C130.039 5.20052 130.344 6.23698 130.344 7.58594V8.1875H124.617C124.638 9.02083 124.88 9.69531 125.344 10.2109C125.812 10.7214 126.406 10.9766 127.125 10.9766C127.635 10.9766 128.068 10.8724 128.422 10.6641C128.776 10.4557 129.086 10.1797 129.352 9.83594L130.234 10.5234C129.526 11.612 128.464 12.1562 127.047 12.1562ZM126.867 4.57812C126.284 4.57812 125.794 4.79167 125.398 5.21875C125.003 5.64062 124.758 6.23438 124.664 7H128.898V6.89062C128.857 6.15625 128.659 5.58854 128.305 5.1875C127.951 4.78125 127.471 4.57812 126.867 4.57812ZM139.164 7.86719C139.164 9.15365 138.87 10.1901 138.281 10.9766C137.693 11.763 136.896 12.1562 135.891 12.1562C134.865 12.1562 134.057 11.8307 133.469 11.1797V15.25H132.023V3.54688H133.344L133.414 4.48438C134.003 3.75521 134.82 3.39062 135.867 3.39062C136.883 3.39062 137.685 3.77344 138.273 4.53906C138.867 5.30469 139.164 6.36979 139.164 7.73438V7.86719ZM137.719 7.70312C137.719 6.75 137.516 5.9974 137.109 5.44531C136.703 4.89323 136.146 4.61719 135.438 4.61719C134.562 4.61719 133.906 5.00521 133.469 5.78125V9.82031C133.901 10.5911 134.562 10.9766 135.453 10.9766C136.146 10.9766 136.695 10.7031 137.102 10.1562C137.513 9.60417 137.719 8.78646 137.719 7.70312Z" fill="white"/>
</svg>
