<svg width="187" height="41" viewBox="0 0 187 41" fill="none" xmlns="http://www.w3.org/2000/svg">
<path fill-rule="evenodd" clip-rule="evenodd" d="M36.3444 10L32.1397 12.4612V13.806H37.6014V10H36.3444ZM113.469 15.1191C112.215 15.1192 110.705 15.2494 109.84 15.324C109.493 15.3539 109.249 15.3749 109.168 15.3749V31.3042H112.653V25.8675C113.162 25.9527 113.677 25.9954 114.191 25.9954C117.393 25.9954 119.843 23.8531 119.843 20.5903C119.843 16.8793 117.143 15.1193 113.469 15.1191ZM113.783 23.0212C113.398 23.03 113.015 22.9671 112.653 22.8356V18.3187C112.834 18.2885 113.439 18.2885 113.783 18.2885C115.322 18.2885 116.357 19.0557 116.357 20.6535C116.357 22.1907 115.291 23.0212 113.783 23.0212ZM105.28 25.7149H101.92V28.106H106.249V31.3042H98.4966V15.3102H106.002V18.5057H101.92V22.6349H105.28V25.7149ZM89.2378 23.1464V15.3102H85.8169V31.3042H89.2378V26.1287H89.8656L93.8829 31.3042H95.3342V27.5945C95.0503 27.2001 94.7295 26.7623 94.4064 26.3213C93.9432 25.6892 93.4753 25.0506 93.1046 24.5241C93.515 23.3114 94.0717 21.5486 94.4218 20.3331L95.8977 15.3102H92.3127L89.9901 23.145L89.2378 23.1464ZM45.2311 23.3073C45.2311 25.8689 47.2719 27.0514 48.5275 27.0514V27.05V19.5659C47.2691 19.5659 45.2311 20.747 45.2311 23.3073ZM35.9368 31.3056V26.7956V26.7942L35.3801 26.7929L31.6746 31.3029H29.8226V15.3075H33.2695V17.744C33.2695 19.4324 33.1719 22.3188 33.1059 24.2695L33.1059 24.2699L33.1059 24.2708L33.1059 24.2711L33.1058 24.272L33.1058 24.2723L33.0876 24.8129H33.6525L35.9368 21.781V15.3116H39.3837V31.3056H35.9368ZM3.22954 21.4221C3.22954 24.6204 2.81372 27.787 1 28.458V31.8818C5.23749 31.4349 6.55607 27.6591 6.55607 22.0285V18.1345H8.81707V31.3139H12.264V15.3089H3.22954V21.4221ZM55.1792 23.3169C55.1792 20.7552 53.1384 19.5728 51.8828 19.5728V27.0514C53.1384 27.0514 55.1792 25.8771 55.1792 23.3169ZM51.8828 29.8426C55.6497 29.8426 58.6644 27.1545 58.6644 23.3169C58.6644 19.4779 55.6511 16.7898 51.8828 16.7898V14.6076H48.5275V16.7801C44.7619 16.7801 41.7472 19.4696 41.7472 23.3073C41.7472 27.1449 44.7592 29.833 48.5275 29.833V31.7525H51.8828V29.8426ZM61.9513 15.3103C62.733 16.7281 63.4891 18.1602 64.2191 19.6058V19.6044L64.8784 19.5948C65.4395 18.4519 66.2519 16.9499 66.9113 15.7308L66.9115 15.7304L67.1394 15.3089H68.6453V19.6938L66.6675 23.0213L68.923 26.8919V31.307H67.4157L64.8756 26.445H64.2164L61.6777 31.3056H60.1704V26.8919L62.4204 23.0199L60.4439 19.6924V15.3103H61.9513ZM79.7288 15.3102H74.3587L70.1527 31.3042H73.668L74.3587 28.4869H79.7288L80.4195 31.3029H83.9348L79.7288 15.3102ZM75.1124 25.5485H78.9724L77.3419 18.7972H76.7127L75.1124 25.5485ZM23.7263 15.3102H18.3576L14.1516 31.3042H17.6668L18.359 28.4869H23.7263L24.417 31.3029H27.9323L23.7263 15.3102ZM19.1099 25.5485H22.9712L21.3394 18.7972H20.7116L19.1099 25.5485Z" fill="white"/>
<path fill-rule="evenodd" clip-rule="evenodd" d="M163.467 30.6187L163.48 21.4437C163.48 20.6013 164.195 20.5109 164.502 20.5109C164.546 20.5109 164.572 20.5126 164.595 20.5134L164.656 20.5126C165.748 20.5126 166.103 21.7341 166.141 22.4468V29.9311C166.141 31.8109 165.053 31.9564 164.72 31.9564C164.325 31.9564 164.017 31.8402 163.805 31.611C163.448 31.2246 163.467 30.6312 163.467 30.6187ZM168.055 18.3233C168.046 15.9071 166.855 14.5217 164.788 14.5217C162.879 14.5217 161.266 16.1321 161.191 18.1191L161.192 33.556C161.184 33.6464 161.026 35.7839 162.164 37.0707C162.709 37.6872 163.458 38 164.39 38C165.494 38 166.376 37.6537 167.012 36.971C168.116 35.7856 168.076 34.0255 168.073 33.9559L168.055 18.3233Z" fill="white"/>
<mask id="mask0" mask-type="alpha" maskUnits="userSpaceOnUse" x="150" y="16" width="12" height="22">
<path fill-rule="evenodd" clip-rule="evenodd" d="M150.457 16.217H161.145V38H150.457V16.217Z" fill="white"/>
</mask>
<g mask="url(#mask0)">
<path fill-rule="evenodd" clip-rule="evenodd" d="M161.053 16.2371C160.996 16.2075 160.926 16.2108 160.873 16.2454L156.131 19.3019L151.905 22.9152C151.868 22.9475 151.846 22.9935 151.846 23.0422L151.853 26.5996C151.853 26.6638 151.891 26.7215 151.95 26.7502C152.01 26.7791 152.08 26.7716 152.133 26.7347L153.531 25.7295L153.542 32.4102C153.209 31.7899 152.647 31.438 151.935 31.438H151.923C150.609 31.7388 150.457 33.2588 150.457 34.3759C150.457 35.1825 150.636 37.8261 152.934 37.9917C153.009 37.9975 153.081 38 153.153 38C154.061 38 154.665 37.5724 155.012 37.2141C155.601 36.6045 155.828 35.8202 155.791 35.3241V24.4567L157.615 23.2663V32.6507L156.616 33.145C156.558 33.174 156.521 33.2316 156.521 33.295L156.507 37.7579C156.507 37.8023 156.525 37.8451 156.558 37.8772C156.591 37.9092 156.636 37.9268 156.682 37.9268H160.739C160.836 37.9268 160.914 37.8509 160.914 37.7579V32.1439C160.914 32.0848 160.882 32.0295 160.829 31.9991C160.776 31.9694 160.71 31.9671 160.656 31.9949L159.73 32.472L159.723 22.1812L161.024 21.6861C161.09 21.6614 161.135 21.5987 161.135 21.5296L161.145 16.3863C161.145 16.3236 161.11 16.2667 161.053 16.2371Z" fill="white"/>
</g>
<path fill-rule="evenodd" clip-rule="evenodd" d="M177.181 16.7123C174.953 15.4616 172.81 14.8272 169.781 14.522C169.737 14.5195 169.691 14.5335 169.658 14.566C169.625 14.5975 169.606 14.644 169.606 14.6911V24.2159C169.606 24.2962 169.66 24.366 169.733 24.3826L171.266 24.7201C171.313 24.7308 171.361 24.7176 171.399 24.686C171.436 24.6537 171.458 24.6047 171.458 24.5542V19.5642L172.415 19.9722V31.1731L171.608 31.4732C171.544 31.4966 171.501 31.5612 171.501 31.6333L171.482 37.83C171.482 37.8747 171.498 37.9178 171.528 37.9501C171.558 37.9825 171.599 38 171.641 38H175.638C175.726 38 175.798 37.9237 175.798 37.83V31.7718C175.798 31.7038 175.76 31.6423 175.701 31.6158L174.904 31.2493V20.4225L175.606 20.8414V25.7111C175.606 25.7816 175.646 25.8454 175.708 25.8703L177.049 26.4153C177.099 26.4351 177.154 26.4269 177.197 26.396C177.24 26.3645 177.265 26.3124 177.265 26.256V16.8632C177.265 16.8002 177.233 16.742 177.181 16.7123Z" fill="white"/>
<path fill-rule="evenodd" clip-rule="evenodd" d="M183.35 30.8368C183.35 30.853 183.312 32.5452 182.362 32.4278C181.129 32.2621 181.198 30.8692 181.202 30.7997L181.197 25.463C181.209 25.1613 181.293 24.4589 181.798 24.4589C182.036 24.4589 182.345 24.61 182.696 24.8969C183.58 25.6101 183.348 27.3733 183.344 27.4146L183.35 30.8368ZM181.165 19.2174C180.96 19.2174 180.753 19.2409 180.561 19.2853C178.909 19.5416 178.799 21.4011 178.797 21.4279V34.12C178.826 36.0053 180.782 37.9992 182.596 37.9992L182.647 38C182.958 38 185.691 37.9224 185.691 35.2462V24.9608C185.706 23.546 184.886 21.659 183.738 20.4746C182.941 19.6524 182.051 19.2174 181.165 19.2174Z" fill="white"/>
<mask id="mask1" mask-type="alpha" maskUnits="userSpaceOnUse" x="151" y="2" width="9" height="19">
<path fill-rule="evenodd" clip-rule="evenodd" d="M151.301 2.78605H159.522V20.6835H151.301V2.78605Z" fill="white"/>
</mask>
<g mask="url(#mask1)">
<path fill-rule="evenodd" clip-rule="evenodd" d="M152.568 4.08939L155.078 4.08861C155.233 4.1124 155.338 4.17595 155.401 4.28301C155.5 4.45268 155.496 4.746 155.391 5.12588L152.568 13.7474V4.08939ZM151.726 19.8901L151.526 20.6835L153.658 19.0984L153.217 18.5224V14.9683L155.223 8.34209C155.49 9.82669 156.25 11.633 157.415 12.4647C157.317 13.2647 156.506 14.5911 155.692 15.2715H155.179L155.194 17.5628L155.299 17.5668H155.3C155.404 17.5668 158.13 15.2954 158.976 11.8657C159.335 10.4257 159.307 8.93781 159.306 8.92529V3.47066L159.522 2.83393H157.914L158.198 3.5209V9.69741C158.198 10.2939 157.825 10.9233 157.683 11.1407C156.535 10.4348 155.995 7.64603 155.789 6.58153L155.776 6.51532L156.547 3.96824C156.609 3.55972 156.485 3.29191 156.369 3.13868C156.207 2.92283 155.962 2.79511 155.692 2.78603H151.301L151.726 3.51104V19.8901Z" fill="white"/>
</g>
<path fill-rule="evenodd" clip-rule="evenodd" d="M164.857 12.9099L165.01 12.9565L165.002 11.2084L164.909 11.1868C162.92 10.7389 161.912 9.2616 161.912 6.797C161.912 5.67073 162.014 4.87007 162.215 4.41558C162.44 3.89546 162.891 3.58487 163.437 3.58487H163.438C163.732 3.59072 163.977 3.76546 163.979 3.768L164.166 3.90273V2.00917L162.563 2C160.414 2 160.414 5.68243 160.414 6.89267C160.414 9.85667 162.034 12.0501 164.857 12.9099Z" fill="white"/>
<path fill-rule="evenodd" clip-rule="evenodd" d="M171.108 12.939L170.804 11.9934V7.28805C170.799 6.82156 171.169 6.18224 171.519 6.01965C171.834 6.49719 173.438 9.01935 173.433 10.8141L173.426 12.7746L173.077 13.2144L175.362 13.7391L174.968 13.0605L174.973 10.7789C175.023 9.32145 173.986 7.33504 173.944 7.25471L172.684 4.66492L175.734 2L172.583 2.00081L172.731 2.20096C172.752 2.22844 173.218 2.89004 172.253 3.8126C171.871 4.18055 171.249 4.59728 170.937 4.7984L170.946 2.48941L171.222 2H168.977L169.431 2.45868V10.5469C168.804 10.3523 166.188 9.38941 165.85 6.81734C165.732 5.9273 165.874 4.72816 166.46 4.05649C166.809 3.65764 167.265 3.477 167.86 3.5292C168.235 3.55846 168.368 3.80479 168.373 3.81422L168.61 3.75683L168.597 2.05723L166.728 2.04861C166.32 2.04861 165.794 2.33283 165.355 2.79069C164.911 3.25376 164.177 4.30119 164.249 6.1146C164.356 8.83871 165.216 9.7211 166.61 10.9345C168.011 12.1473 169.438 12.4872 169.498 12.5016L169.609 12.5273L171.108 12.939Z" fill="white"/>
<path fill-rule="evenodd" clip-rule="evenodd" d="M185.373 17.3626L182.791 15.2799L182.797 7.0877L184.857 7.51173L184.794 6.46792L182.854 6.14497V3.59103H184.648L185.196 4.19976V2H181.095L181.493 2.77565V15.6096L181.169 15.9563L185.682 20L185.691 17.3626H185.373Z" fill="white"/>
<path fill-rule="evenodd" clip-rule="evenodd" d="M177.728 12.8107C177.697 12.8107 177.665 12.81 177.633 12.8083C176.44 12.7389 176.472 11.7039 176.474 11.6543V5.62604C176.47 4.72179 176.778 4.29651 177.502 4.20311C177.533 4.19917 177.568 4.1975 177.603 4.1975C178.024 4.1975 178.775 4.47845 178.775 5.03777L178.781 11.8307C178.781 11.8707 178.764 12.8107 177.728 12.8107ZM180.323 9.32414L180.326 8.86277C180.339 7.52126 180.364 4.72816 179.206 3.45215C178.803 3.00761 178.29 2.78261 177.679 2.78261H177.628C175.173 2.78261 174.982 6.53423 174.982 7.6841L174.98 7.76066C174.936 9.06958 174.974 11.5035 175.712 13.11C176.301 14.3844 177.429 14.5217 177.887 14.5217C178.056 14.5217 178.163 14.5042 178.165 14.5042C180.302 14.1842 180.315 11.0224 180.323 9.32414Z" fill="white"/>
<path d="M135.5 0.999998V39.5062" stroke="white" stroke-linecap="square"/>
</svg>
