<svg width="19" height="16" viewBox="0 0 19 16" fill="none" xmlns="http://www.w3.org/2000/svg">
<path d="M19 1.83927C18.3007 2.15139 17.5503 2.36306 16.762 2.45756C17.567 1.97202 18.1832 1.20187 18.4752 0.287006C17.7201 0.736653 16.8866 1.06315 15.9985 1.24015C15.2874 0.475977 14.2758 0 13.1538 0C11.0013 0 9.25596 1.75797 9.25596 3.92493C9.25596 4.23226 9.29039 4.53243 9.35689 4.81947C6.11801 4.65561 3.24599 3.09259 1.32379 0.717515C0.987784 1.29634 0.796635 1.9708 0.796635 2.69075C0.796635 4.05289 1.48526 5.25476 2.53008 5.95793C1.89131 5.93641 1.29054 5.75942 0.764596 5.46522V5.51425C0.764596 7.41572 2.1086 9.00267 3.89069 9.36385C3.56418 9.45235 3.21988 9.50138 2.8637 9.50138C2.61201 9.50138 2.36861 9.47627 2.12996 9.42842C2.62623 10.9891 4.06523 12.124 5.77017 12.1551C4.43685 13.2075 2.75566 13.8329 0.929635 13.8329C0.615017 13.8329 0.305118 13.8138 0 13.7791C1.72512 14.8949 3.77318 15.5455 5.97439 15.5455C13.1444 15.5455 17.0636 9.56358 17.0636 4.3758L17.0505 3.86755C17.8163 3.31739 18.4788 2.62618 19 1.83927Z" fill="#ED5E42"/>
</svg>
