<svg width="19" height="12" viewBox="0 0 19 12" fill="none" xmlns="http://www.w3.org/2000/svg">
<path d="M18.8992 10.329C18.8762 10.2793 18.8548 10.2381 18.8349 10.2051C18.5052 9.61051 17.8753 8.88065 16.9454 8.01534L16.9257 7.99553L16.9159 7.98581L16.906 7.97585H16.896C16.474 7.57292 16.2067 7.302 16.0948 7.16329C15.89 6.89906 15.8441 6.63161 15.9561 6.36062C16.0351 6.15587 16.3321 5.72348 16.8464 5.06285C17.1169 4.71273 17.3311 4.43213 17.4893 4.22072C18.6304 2.70144 19.125 1.73061 18.9733 1.30783L18.9143 1.20903C18.8747 1.14955 18.7725 1.09513 18.6078 1.04551C18.4428 0.995988 18.2318 0.987798 17.9745 1.0208L15.1256 1.04051C15.0794 1.02413 15.0135 1.02566 14.9276 1.04551C14.8419 1.06536 14.799 1.07532 14.799 1.07532L14.7494 1.10013L14.7101 1.12994C14.6771 1.14965 14.6408 1.18432 14.6012 1.23387C14.5618 1.28326 14.5288 1.34121 14.5025 1.40725C14.1923 2.20648 13.8397 2.94957 13.4439 3.63647C13.1999 4.04606 12.9757 4.40104 12.7711 4.7016C12.5667 5.00205 12.3952 5.22342 12.2568 5.36532C12.1182 5.50735 11.9931 5.62114 11.8808 5.7071C11.7686 5.79309 11.683 5.82943 11.6237 5.81614C11.5643 5.80285 11.5084 5.78966 11.4554 5.77647C11.3631 5.71699 11.2889 5.6361 11.2329 5.53373C11.1767 5.43136 11.1389 5.3025 11.1191 5.14728C11.0994 4.99195 11.0878 4.85835 11.0845 4.74601C11.0814 4.63382 11.0828 4.47513 11.0895 4.27038C11.0964 4.06553 11.0994 3.92693 11.0994 3.85426C11.0994 3.60323 11.1043 3.33078 11.1141 3.03684C11.1241 2.74291 11.1322 2.51003 11.1389 2.33846C11.1457 2.16671 11.1488 1.98501 11.1488 1.79345C11.1488 1.60189 11.1371 1.45167 11.1141 1.34263C11.0914 1.23374 11.0565 1.12803 11.0105 1.02555C10.9643 0.923182 10.8966 0.843991 10.8077 0.787773C10.7187 0.731624 10.608 0.687066 10.4763 0.65396C10.1268 0.574734 9.68164 0.531876 9.14074 0.525213C7.91414 0.512026 7.12598 0.591357 6.77644 0.763099C6.63795 0.835662 6.51263 0.934808 6.40057 1.06022C6.28183 1.20559 6.26527 1.28492 6.35099 1.29797C6.74675 1.35735 7.02692 1.49938 7.19181 1.72394L7.25124 1.84294C7.29746 1.92879 7.34361 2.08079 7.3898 2.29872C7.43591 2.51665 7.46568 2.75773 7.47877 3.02182C7.51169 3.50408 7.51169 3.9169 7.47877 4.26032C7.44575 4.60387 7.41457 4.87133 7.38481 5.06288C7.35504 5.25444 7.31055 5.40967 7.25124 5.52852C7.19181 5.64741 7.15228 5.72008 7.13246 5.74645C7.11268 5.77283 7.09618 5.78945 7.08309 5.79597C6.99736 5.82887 6.90821 5.84563 6.81594 5.84563C6.72353 5.84563 6.61148 5.79934 6.47961 5.70682C6.34777 5.61431 6.21094 5.48723 6.06912 5.32537C5.9273 5.16349 5.76737 4.93726 5.58924 4.64666C5.41124 4.35606 5.22657 4.01261 5.03531 3.61631L4.87706 3.3289C4.77814 3.14401 4.64301 2.87478 4.47153 2.52148C4.29995 2.16803 4.1483 1.82614 4.01646 1.49588C3.96376 1.35717 3.88458 1.25157 3.77908 1.17891L3.72956 1.1491C3.69665 1.12272 3.64381 1.09472 3.57132 1.06487C3.49873 1.03506 3.42299 1.01369 3.34378 1.00053L0.633242 1.02025C0.356259 1.02025 0.168324 1.08309 0.0693669 1.20861L0.0297633 1.26799C0.00997886 1.30106 0 1.35388 0 1.42658C0 1.49924 0.0197845 1.58843 0.0593881 1.69403C0.455078 2.62545 0.885381 3.52372 1.3503 4.38899C1.81522 5.25427 2.21922 5.95127 2.56207 6.47937C2.90499 7.00786 3.25453 7.50664 3.61068 7.97547C3.96684 8.44447 4.20259 8.74503 4.31794 8.87708C4.43342 9.00936 4.52413 9.10826 4.59007 9.1743L4.83743 9.41205C4.9957 9.57061 5.22813 9.7605 5.5348 9.98173C5.84155 10.2031 6.18114 10.421 6.55376 10.6359C6.92644 10.8504 7.36 11.0254 7.85468 11.1608C8.34929 11.2963 8.8307 11.3507 9.29898 11.3244H10.4366C10.6674 11.3045 10.8422 11.2318 10.961 11.1064L11.0003 11.0567C11.0268 11.0173 11.0516 10.9561 11.0745 10.8737C11.0976 10.7911 11.1091 10.7001 11.1091 10.6012C11.1023 10.3172 11.1239 10.0613 11.1733 9.83344C11.2226 9.60565 11.2788 9.43391 11.3416 9.31825C11.4045 9.20269 11.4753 9.10517 11.5542 9.02612C11.6333 8.9469 11.6896 8.8989 11.7227 8.88238C11.7555 8.86576 11.7818 8.85448 11.8016 8.84772C11.9598 8.7949 12.1461 8.84605 12.3607 9.00141C12.575 9.15664 12.7761 9.3483 12.9642 9.57609C13.1521 9.80408 13.378 10.0599 13.6417 10.3438C13.9056 10.6279 14.1364 10.8391 14.3342 10.978L14.532 11.0969C14.664 11.1762 14.8355 11.2489 15.0466 11.3149C15.2573 11.3809 15.4419 11.3975 15.6004 11.3644L18.1328 11.3249C18.3833 11.3249 18.5782 11.2833 18.7164 11.2009C18.855 11.1184 18.9372 11.0274 18.9638 10.9285C18.9903 10.8294 18.9917 10.7171 18.9688 10.5915C18.9454 10.4661 18.9222 10.3785 18.8992 10.329Z" fill="#ED5E42"/>
</svg>
