<svg width="62" height="62" viewBox="0 0 62 62" fill="none" xmlns="http://www.w3.org/2000/svg">
<path fill-rule="evenodd" clip-rule="evenodd" d="M31 61C47.5685 61 61 47.5685 61 31C61 14.4315 47.5685 1 31 1C14.4315 1 1 14.4315 1 31C1 47.5685 14.4315 61 31 61Z" stroke="#ED5E42" stroke-width="2"/>
<path fill-rule="evenodd" clip-rule="evenodd" d="M27.9474 36.7778V25.2222C27.9474 23.6333 29.2121 22.3333 30.7895 22.3333H43.5789V20.8889C43.5789 19.3 42.3 18 40.7368 18H20.8421C19.2647 18 18 19.3 18 20.8889V41.1111C18 42.7 19.2647 44 20.8421 44H40.7368C42.3 44 43.5789 42.7 43.5789 41.1111V39.6667H30.7895C29.2121 39.6667 27.9474 38.3667 27.9474 36.7778ZM32.2105 25.2222C31.4289 25.2222 30.7895 25.8722 30.7895 26.6667V35.3333C30.7895 36.1278 31.4289 36.7778 32.2105 36.7778H45V25.2222H32.2105ZM34.3421 31C34.3421 32.1989 35.2942 33.1667 36.4737 33.1667C37.6532 33.1667 38.6053 32.1989 38.6053 31C38.6053 29.8011 37.6532 28.8333 36.4737 28.8333C35.2942 28.8333 34.3421 29.8011 34.3421 31Z" fill="#ED5E42"/>
<path fill-rule="evenodd" clip-rule="evenodd" d="M31 58C45.9117 58 58 45.9117 58 31C58 16.0883 45.9117 4 31 4C16.0883 4 4 16.0883 4 31C4 45.9117 16.0883 58 31 58Z" stroke="#ED5E42"/>
</svg>
