<svg width="62" height="62" viewBox="0 0 62 62" fill="none" xmlns="http://www.w3.org/2000/svg">
<path fill-rule="evenodd" clip-rule="evenodd" d="M46 19.7861C46 21.8545 40.9609 23.5361 34.75 23.5361C28.5391 23.5361 23.5 21.8545 23.5 19.7861C23.5 17.7178 28.5391 16.0361 34.75 16.0361C40.9609 16.0361 46 17.7178 46 19.7861ZM16 42.2861V39.7842C18.4199 41.4893 22.8438 42.2861 27.25 42.2861C31.6562 42.2861 36.0801 41.4893 38.5 39.7842V42.2861C38.5 44.3545 33.4609 46.0361 27.25 46.0361C21.0391 46.0361 16 44.3545 16 42.2861ZM16 33.6377V36.6611C16 38.7295 21.0391 40.4111 27.25 40.4111C33.4609 40.4111 38.5 38.7295 38.5 36.6611V33.6377C36.0801 35.6299 31.6504 36.6611 27.25 36.6611C22.8496 36.6611 18.4199 35.6299 16 33.6377ZM46 31.0361C46 32.4248 43.7324 33.6318 40.375 34.2822V30.5557C42.6426 30.1514 44.6406 29.4951 46 28.5342V31.0361ZM27.25 25.4111C21.0391 25.4111 16 27.5088 16 30.0986C16 32.6885 21.0391 34.7861 27.25 34.7861C33.4609 34.7861 38.5 32.6885 38.5 30.0986C38.5 27.5088 33.4609 25.4111 27.25 25.4111ZM46 25.4111C46 26.835 43.6152 28.0771 40.0996 28.71C39.584 27.3213 38.3125 26.1963 36.584 25.3584C40.3457 25.1709 43.9199 24.3799 46 22.9092V25.4111Z" fill="#ED5E42"/>
<path fill-rule="evenodd" clip-rule="evenodd" d="M31 61C47.5685 61 61 47.5685 61 31C61 14.4315 47.5685 1 31 1C14.4315 1 1 14.4315 1 31C1 47.5685 14.4315 61 31 61Z" stroke="#ED5E42" stroke-width="2"/>
<path fill-rule="evenodd" clip-rule="evenodd" d="M31 58C45.9117 58 58 45.9117 58 31C58 16.0883 45.9117 4 31 4C16.0883 4 4 16.0883 4 31C4 45.9117 16.0883 58 31 58Z" stroke="#ED5E42"/>
</svg>
