<svg width="62" height="62" viewBox="0 0 62 62" fill="none" xmlns="http://www.w3.org/2000/svg">
<path fill-rule="evenodd" clip-rule="evenodd" d="M31 61C47.5685 61 61 47.5685 61 31C61 14.4315 47.5685 1 31 1C14.4315 1 1 14.4315 1 31C1 47.5685 14.4315 61 31 61Z" stroke="#ED5E42" stroke-width="2"/>
<path fill-rule="evenodd" clip-rule="evenodd" d="M32.1819 17C32.9438 17 33.6769 17.3045 34.2231 17.8555L41.1519 24.859C41.6981 25.3955 42 26.135 42 26.9035V43.1C42 44.695 40.7062 46 39.125 46H21.8606C20.2794 46 19 44.695 19 43.1V19.9C19 18.305 20.2938 17 21.875 17H32.1819ZM26.1875 40.2H34.8125C35.6031 40.2 36.25 39.5475 36.25 38.75C36.25 37.9525 35.6031 37.3 34.8125 37.3H26.1875C25.3969 37.3 24.75 37.9525 24.75 38.75C24.75 39.5475 25.3969 40.2 26.1875 40.2ZM34.8125 34.4H26.1875C25.3969 34.4 24.75 33.7475 24.75 32.95C24.75 32.1525 25.3969 31.5 26.1875 31.5H34.8125C35.6031 31.5 36.25 32.1525 36.25 32.95C36.25 33.7475 35.6031 34.4 34.8125 34.4ZM31.9375 19.175V25.7C31.9375 26.4975 32.5844 27.15 33.375 27.15H39.8438L31.9375 19.175Z" fill="#ED5E42"/>
<path fill-rule="evenodd" clip-rule="evenodd" d="M31 58C45.9117 58 58 45.9117 58 31C58 16.0883 45.9117 4 31 4C16.0883 4 4 16.0883 4 31C4 45.9117 16.0883 58 31 58Z" stroke="#ED5E42"/>
</svg>
