<svg width="62" height="62" viewBox="0 0 62 62" fill="none" xmlns="http://www.w3.org/2000/svg">
<path d="M24.3477 29.8867L25.5957 17.4062H38.3926V19.3574H27.4062L26.5098 28.0059C27.8809 27.0684 29.4863 26.5996 31.3262 26.5996C33.6348 26.5996 35.4746 27.3496 36.8457 28.8496C38.2168 30.3496 38.9023 32.3477 38.9023 34.8438C38.9023 37.5391 38.2344 39.6309 36.8984 41.1191C35.5625 42.6074 33.6816 43.3516 31.2559 43.3516C29.0293 43.3516 27.2246 42.7305 25.8418 41.4883C24.459 40.2461 23.668 38.5059 23.4688 36.2676H25.4902C25.6895 38.0137 26.2812 39.3379 27.2656 40.2402C28.25 41.1309 29.5801 41.5762 31.2559 41.5762C33.084 41.5762 34.4609 40.9961 35.3867 39.8359C36.3242 38.6758 36.793 37.0234 36.793 34.8789C36.793 33.0039 36.2715 31.4746 35.2285 30.291C34.1855 29.1074 32.7617 28.5156 30.957 28.5156C29.9609 28.5156 29.0938 28.6445 28.3555 28.9023C27.6172 29.1484 26.8379 29.6348 26.0176 30.3613L24.3477 29.8867Z" fill="#ED5E42"/>
<path fill-rule="evenodd" clip-rule="evenodd" d="M31 61C47.5685 61 61 47.5685 61 31C61 14.4315 47.5685 1 31 1C14.4315 1 1 14.4315 1 31C1 47.5685 14.4315 61 31 61Z" stroke="#ED5E42" stroke-width="2"/>
<path fill-rule="evenodd" clip-rule="evenodd" d="M31 58C45.9117 58 58 45.9117 58 31C58 16.0883 45.9117 4 31 4C16.0883 4 4 16.0883 4 31C4 45.9117 16.0883 58 31 58Z" stroke="#ED5E42"/>
</svg>
