<svg width="62" height="62" viewBox="0 0 62 62" fill="none" xmlns="http://www.w3.org/2000/svg">
<path fill-rule="evenodd" clip-rule="evenodd" d="M43.1875 23.5176C43.9123 24.0649 44.4039 24.4475 44.9225 24.8541C45.6027 25.3873 46 26.2035 46 27.0672V27.6912L40.375 31.7547V20.9313H21.625V31.7547L16 27.6912V27.0672C16.0001 26.2031 16.3974 25.3871 17.0775 24.8541C17.5961 24.4475 18.0877 24.0643 18.8125 23.5176V20.9313C18.8125 19.378 20.0717 18.1188 21.625 18.1188H26.1689C26.2835 18.0359 26.393 17.9564 26.5059 17.8744C26.5686 17.8288 26.6323 17.7825 26.6986 17.7344C26.8639 17.6139 27.0565 17.4649 27.269 17.3005C28.3236 16.4846 29.8686 15.2893 31 15.3063C32.1321 15.2893 33.6787 16.486 34.7331 17.3019C34.9448 17.4658 35.1367 17.6142 35.3014 17.7344C35.3675 17.7825 35.4312 17.8287 35.4938 17.8741C35.6068 17.9563 35.7164 18.0358 35.8311 18.1188H40.375C41.9283 18.1188 43.1875 19.378 43.1875 20.9313V23.5176ZM36.625 27.025C36.625 27.543 36.2055 27.9625 35.6875 27.9625H26.3125C25.7945 27.9625 25.375 27.543 25.375 27.025V26.0875C25.375 25.5696 25.7945 25.15 26.3125 25.15H35.6875C36.2055 25.15 36.625 25.5696 36.625 26.0875V27.025ZM26.3125 33.5875C25.7945 33.5875 25.375 33.1679 25.375 32.65V31.7125C25.375 31.1945 25.7945 30.775 26.3125 30.775H35.6875C36.2055 30.775 36.625 31.1945 36.625 31.7125V32.65C36.625 33.1679 36.2055 33.5875 35.6875 33.5875H26.3125ZM31 39.7474C30.0379 39.7474 29.0758 39.4509 28.2543 38.8574L16 30.0051V42.4937C16 44.047 17.2592 45.3062 18.8125 45.3062H43.1875C44.7408 45.3062 46 44.047 46 42.4937V30.0051L33.7457 38.8574C32.9242 39.4503 31.9621 39.7474 31 39.7474Z" fill="#ED5E42"/>
<path fill-rule="evenodd" clip-rule="evenodd" d="M31 61C47.5685 61 61 47.5685 61 31C61 14.4315 47.5685 1 31 1C14.4315 1 1 14.4315 1 31C1 47.5685 14.4315 61 31 61Z" stroke="#ED5E42" stroke-width="2"/>
<path fill-rule="evenodd" clip-rule="evenodd" d="M31 58C45.9117 58 58 45.9117 58 31C58 16.0883 45.9117 4 31 4C16.0883 4 4 16.0883 4 31C4 45.9117 16.0883 58 31 58Z" stroke="#ED5E42"/>
</svg>
