<svg width="62" height="62" viewBox="0 0 62 62" fill="none" xmlns="http://www.w3.org/2000/svg">
<path fill-rule="evenodd" clip-rule="evenodd" d="M31 58C45.9117 58 58 45.9117 58 31C58 16.0883 45.9117 4 31 4C16.0883 4 4 16.0883 4 31C4 45.9117 16.0883 58 31 58Z" stroke="#ED5E42"/>
<path fill-rule="evenodd" clip-rule="evenodd" d="M42.1578 19.5894L45.3189 24.6479C46.9555 27.2651 45.504 30.8979 42.4452 31.3081C42.226 31.3374 42.0069 31.3521 41.7779 31.3521C40.3411 31.3521 39.0649 30.7173 38.1833 29.7358C37.3066 30.7173 36.0305 31.3521 34.5888 31.3521C33.1519 31.3521 31.8709 30.7173 30.9942 29.7358C30.1174 30.7173 28.8413 31.3521 27.3996 31.3521C25.9627 31.3521 24.6817 30.7173 23.805 29.7358C22.9283 30.7173 21.6522 31.3521 20.2104 31.3521C19.9864 31.3521 19.7623 31.3374 19.5431 31.3081C16.4941 30.8931 15.0475 27.2603 16.6792 24.6479L19.8402 19.5894C20.1228 19.1353 20.6244 18.8569 21.1602 18.8569H40.8379C41.3737 18.8569 41.8753 19.1353 42.1578 19.5894ZM40.3508 32.7339C40.8184 32.8462 41.3006 32.9194 41.7877 32.9194C42.0848 32.9194 42.377 32.8999 42.6741 32.8608C42.9469 32.8267 43.2099 32.7632 43.4729 32.6851V42.2944C43.4729 43.1587 42.7764 43.8569 41.9143 43.8569H20.0935C19.2314 43.8569 18.5349 43.1587 18.5349 42.2944V32.6851C18.793 32.7583 19.0609 32.8218 19.3337 32.8608C19.6211 32.8999 19.9182 32.9194 20.2104 32.9194C20.6975 32.9194 21.1797 32.8413 21.6473 32.7339V37.6069H40.3508V32.7339Z" fill="#ED5E42"/>
<path fill-rule="evenodd" clip-rule="evenodd" d="M31 61C47.5685 61 61 47.5685 61 31C61 14.4315 47.5685 1 31 1C14.4315 1 1 14.4315 1 31C1 47.5685 14.4315 61 31 61Z" stroke="#ED5E42" stroke-width="2"/>
</svg>
