<svg width="61" height="62" viewBox="0 0 61 62" fill="none" xmlns="http://www.w3.org/2000/svg">
<path d="M31.7148 44H29.6055V20.9375L22.6445 23.5215V21.5527L31.3633 18.3184H31.7148V44Z" fill="#ED5E42"/>
<path fill-rule="evenodd" clip-rule="evenodd" d="M30 61C46.5685 61 60 47.5685 60 31C60 14.4315 46.5685 1 30 1C13.4315 1 0 14.4315 0 31C0 47.5685 13.4315 61 30 61Z" stroke="#ED5E42" stroke-width="2"/>
<path fill-rule="evenodd" clip-rule="evenodd" d="M30 58C44.9117 58 57 45.9117 57 31C57 16.0883 44.9117 4 30 4C15.0883 4 3 16.0883 3 31C3 45.9117 15.0883 58 30 58Z" stroke="#ED5E42"/>
</svg>
