<svg width="62" height="62" viewBox="0 0 62 62" fill="none" xmlns="http://www.w3.org/2000/svg">
<path d="M35.334 18.2129V20.0586H35.0879C32.0293 20.0586 29.6211 20.9609 27.8633 22.7656C26.1055 24.5586 25.1328 27.0547 24.9453 30.2539C25.6484 29.2812 26.5449 28.5312 27.6348 28.0039C28.7246 27.4648 29.9434 27.1953 31.291 27.1953C33.541 27.1953 35.3281 27.9746 36.6523 29.5332C37.9883 31.0801 38.6562 33.1074 38.6562 35.6152C38.6562 37.2793 38.3457 38.7793 37.7246 40.1152C37.1035 41.4512 36.2129 42.4941 35.0527 43.2441C33.8926 43.9824 32.5684 44.3516 31.0801 44.3516C28.6309 44.3516 26.6387 43.4668 25.1035 41.6973C23.5684 39.916 22.8008 37.6191 22.8008 34.8066V32.6973C22.8008 28.1152 23.8438 24.5703 25.9297 22.0625C28.0156 19.543 30.9746 18.2598 34.8066 18.2129H35.334ZM30.957 29.0059C29.6211 29.0059 28.373 29.4043 27.2129 30.2012C26.0645 30.9863 25.2969 31.9883 24.9102 33.207V35C24.9102 37.2266 25.4785 39.043 26.6152 40.4492C27.7637 41.8555 29.252 42.5586 31.0801 42.5586C32.7207 42.5586 34.0449 41.9082 35.0527 40.6074C36.0723 39.3066 36.582 37.666 36.582 35.6855C36.582 33.6699 36.0723 32.0527 35.0527 30.834C34.0449 29.6152 32.6797 29.0059 30.957 29.0059Z" fill="#ED5E42"/>
<path fill-rule="evenodd" clip-rule="evenodd" d="M31 61C47.5685 61 61 47.5685 61 31C61 14.4315 47.5685 1 31 1C14.4315 1 1 14.4315 1 31C1 47.5685 14.4315 61 31 61Z" stroke="#ED5E42" stroke-width="2"/>
<path fill-rule="evenodd" clip-rule="evenodd" d="M31 58C45.9117 58 58 45.9117 58 31C58 16.0883 45.9117 4 31 4C16.0883 4 4 16.0883 4 31C4 45.9117 16.0883 58 31 58Z" stroke="#ED5E42"/>
</svg>
