<svg width="61" height="62" viewBox="0 0 61 62" fill="none" xmlns="http://www.w3.org/2000/svg">
<path d="M26.5996 30.0605H28.7793C29.9863 30.0605 31.041 29.8496 31.9434 29.4277C32.8457 28.9941 33.5312 28.4082 34 27.6699C34.4805 26.9199 34.7207 26.0586 34.7207 25.0859C34.7207 23.4453 34.2578 22.1621 33.332 21.2363C32.4062 20.3105 31.0762 19.8477 29.3418 19.8477C27.7012 19.8477 26.3535 20.334 25.2988 21.3066C24.2559 22.2676 23.7344 23.5391 23.7344 25.1211H21.625C21.625 23.7969 21.959 22.5898 22.627 21.5C23.2949 20.3984 24.2207 19.5488 25.4043 18.9512C26.5879 18.3535 27.9004 18.0547 29.3418 18.0547C31.6621 18.0547 33.4902 18.6875 34.8262 19.9531C36.1621 21.2188 36.8301 22.9531 36.8301 25.1562C36.8301 26.3867 36.4375 27.5234 35.6523 28.5664C34.8789 29.5977 33.8125 30.3711 32.4531 30.8867C34.0469 31.332 35.2539 32.0996 36.0742 33.1895C36.8945 34.2676 37.3047 35.5566 37.3047 37.0566C37.3047 39.248 36.5898 41.0117 35.1602 42.3477C33.7305 43.6836 31.8203 44.3516 29.4297 44.3516C27.9062 44.3516 26.5059 44.0469 25.2285 43.4375C23.9629 42.8281 22.9785 41.9785 22.2754 40.8887C21.584 39.7871 21.2383 38.5098 21.2383 37.0566H23.3477C23.3477 38.6855 23.916 40.0156 25.0527 41.0469C26.1895 42.0664 27.6484 42.5762 29.4297 42.5762C31.2461 42.5762 32.6582 42.1133 33.666 41.1875C34.6855 40.25 35.1953 38.8965 35.1953 37.127C35.1953 35.416 34.6445 34.1094 33.543 33.207C32.4531 32.3047 30.8418 31.8535 28.709 31.8535H26.5996V30.0605Z" fill="#ED5E42"/>
<path fill-rule="evenodd" clip-rule="evenodd" d="M30 61C46.5685 61 60 47.5685 60 31C60 14.4315 46.5685 1 30 1C13.4315 1 0 14.4315 0 31C0 47.5685 13.4315 61 30 61Z" stroke="#ED5E42" stroke-width="2"/>
<path fill-rule="evenodd" clip-rule="evenodd" d="M30 58C44.9117 58 57 45.9117 57 31C57 16.0883 44.9117 4 30 4C15.0883 4 3 16.0883 3 31C3 45.9117 15.0883 58 30 58Z" stroke="#ED5E42"/>
</svg>
