<svg width="61" height="62" viewBox="0 0 61 62" fill="none" xmlns="http://www.w3.org/2000/svg">
<path d="M37.9551 44H21.9238V42.3828L30.6953 32.4336C32.1484 30.7578 33.1562 29.375 33.7188 28.2852C34.2812 27.1953 34.5625 26.1348 34.5625 25.1035C34.5625 23.4863 34.0879 22.209 33.1387 21.2715C32.1895 20.3223 30.8828 19.8477 29.2188 19.8477C27.4961 19.8477 26.1016 20.3984 25.0352 21.5C23.9805 22.6016 23.4531 24.0312 23.4531 25.7891H21.3613C21.3613 24.3477 21.6836 23.0352 22.3281 21.8516C22.9844 20.668 23.9102 19.7422 25.1055 19.0742C26.3125 18.3945 27.6836 18.0547 29.2188 18.0547C31.5625 18.0547 33.3906 18.6699 34.7031 19.9004C36.0273 21.1309 36.6895 22.8066 36.6895 24.9277C36.6895 26.123 36.3145 27.4297 35.5645 28.8477C34.8262 30.2656 33.5195 32.0352 31.6445 34.1562L24.5078 42.2246H37.9551V44Z" fill="#ED5E42"/>
<path fill-rule="evenodd" clip-rule="evenodd" d="M30 61C46.5685 61 60 47.5685 60 31C60 14.4315 46.5685 1 30 1C13.4315 1 0 14.4315 0 31C0 47.5685 13.4315 61 30 61Z" stroke="#ED5E42" stroke-width="2"/>
<path fill-rule="evenodd" clip-rule="evenodd" d="M30 58C44.9117 58 57 45.9117 57 31C57 16.0883 44.9117 4 30 4C15.0883 4 3 16.0883 3 31C3 45.9117 15.0883 58 30 58Z" stroke="#ED5E42"/>
</svg>
