<svg width="62" height="62" viewBox="0 0 62 62" fill="none" xmlns="http://www.w3.org/2000/svg">
<path fill-rule="evenodd" clip-rule="evenodd" d="M31 61C47.5685 61 61 47.5685 61 31C61 14.4315 47.5685 1 31 1C14.4315 1 1 14.4315 1 31C1 47.5685 14.4315 61 31 61Z" stroke="#ED5E42" stroke-width="2"/>
<path fill-rule="evenodd" clip-rule="evenodd" d="M31 58C45.9117 58 58 45.9117 58 31C58 16.0883 45.9117 4 31 4C16.0883 4 4 16.0883 4 31C4 45.9117 16.0883 58 31 58Z" stroke="#ED5E42"/>
<path fill-rule="evenodd" clip-rule="evenodd" d="M38.1408 14.5145L23.8449 14.5C22.2723 14.5 21 15.8091 21 17.4091V43.5909C21 45.1909 22.2723 46.5 23.8449 46.5H38.1408C39.7134 46.5 41 45.1909 41 43.5909V17.4091C41 15.8091 39.7134 14.5145 38.1408 14.5145ZM38.1408 40.6818H23.8449V20.3182H38.1408V40.6818ZM32.1365 34.82V32.2745C28.9628 32.2745 26.8613 33.2636 25.2745 35.4455C25.9178 32.3327 27.6905 29.2345 32.1365 28.6091V26.1364L36.7112 30.4709L32.1365 34.82Z" fill="#ED5E42"/>
</svg>
